# xmcd
#
# Track frame offsets:
#	210
#	12982
#	22560
#	40250
#	53945
#	72550
#	85730
#	105530
#	120702
#	137775
#	149970
#	158632
#	175862
#	193362
#
# Disc length: 2707 seconds
#
# Revision: 1
# Processed by: cddbd v1.5.2PL0 Copyright (c) Steve Scherf et al.
# Submitted via: audiograbber 1.83.01
#
DISCID=c50a910e
DTITLE=Radio Flyer - Old Strings, New Strings
DYEAR=1991
DGENRE=Bluegrass
TTITLE0=I Got a Notion
TTITLE1=Little Red Wagon
TTITLE2=Coming Home
TTITLE3=Second Derivative
TTITLE4=One Too Many Mornings
TTITLE5=Get Rhythm
TTITLE6=On Your Bond
TTITLE7=Whay You See Is What You Get
TTITLE8=Morning Always Takes My Dreams Away
TTITLE9=Last Cold Whiskey
TTITLE10=We Shall Rise
TTITLE11=Sittin' On Top Of The World
TTITLE12=Heaven
TTITLE13=Saro Jane
EXTD=
EXTT0=
EXTT1=
EXTT2=
EXTT3=
EXTT4=
EXTT5=
EXTT6=
EXTT7=
EXTT8=
EXTT9=
EXTT10=
EXTT11=
EXTT12=
EXTT13=
PLAYORDER=
